HIERARCHY
ROOT joint_Root
{
	OFFSET 0.0 0.0 0.0
	CHANNELS 6 Xposition Yposition Zposition Zrotation Xrotation Yrotation 
	JOINT Hips
	{
		OFFSET -0.726466 93.3139 -2.00062
		CHANNELS 6 Xposition Yposition Zposition Zrotation Xrotation Yrotation 
		JOINT Spine
		{
			OFFSET 15.7357 0.0 0.0
			CHANNELS 6 Xposition Yposition Zposition Zrotation Xrotation Yrotation 
			JOINT Chest
			{
				OFFSET 8.98455 -0.406207 0.0
				CHANNELS 6 Xposition Yposition Zposition Zrotation Xrotation Yrotation 
				JOINT Neck
				{
					OFFSET 16.3773 0.0 0.0
					CHANNELS 6 Xposition Yposition Zposition Zrotation Xrotation Yrotation 
					JOINT Head
					{
						OFFSET 6.45672 0.0 0.0
						CHANNELS 6 Xposition Yposition Zposition Zrotation Xrotation Yrotation 
						End Site
						{
							OFFSET 0.0 0.0 0.0
						}
					}
				}
				JOINT Shoulder_L
				{
					OFFSET 12.9942 -0.242716 4.98039
					CHANNELS 6 Xposition Yposition Zposition Zrotation Xrotation Yrotation 
					JOINT UpperArm_L
					{
						OFFSET 5.34809 0.0 0.0
						CHANNELS 6 Xposition Yposition Zposition Zrotation Xrotation Yrotation 
						JOINT LowerArm_L
						{
							OFFSET 24.3286 1.87007e-05 0.0
							CHANNELS 6 Xposition Yposition Zposition Zrotation Xrotation Yrotation 
							JOINT Hand_L
							{
								OFFSET 22.2916 0.0 0.0
								CHANNELS 6 Xposition Yposition Zposition Zrotation Xrotation Yrotation 
								End Site
								{
									OFFSET 0.0 0.0 0.0
								}
							}
						}
					}
				}
				JOINT Shoulder_R
				{
					OFFSET 12.9945 -0.242716 -4.98039
					CHANNELS 6 Xposition Yposition Zposition Zrotation Xrotation Yrotation 
					JOINT UpperArm_R
					{
						OFFSET -5.34813 0.0 0.0
						CHANNELS 6 Xposition Yposition Zposition Zrotation Xrotation Yrotation 
						JOINT LowerArm_R
						{
							OFFSET -24.3289 0.000322201 0.0
							CHANNELS 6 Xposition Yposition Zposition Zrotation Xrotation Yrotation 
							JOINT Hand_R
							{
								OFFSET -22.2915 -0.000108084 0.0
								CHANNELS 6 Xposition Yposition Zposition Zrotation Xrotation Yrotation 
								End Site
								{
									OFFSET 0.0 0.0 0.0
								}
							}
						}
					}
				}
			}
		}
		JOINT UpperLeg_L
		{
			OFFSET -2.19248 -6.46944 0.0
			CHANNELS 6 Xposition Yposition Zposition Zrotation Xrotation Yrotation 
			JOINT LowerLeg_L
			{
				OFFSET 39.0811 0.0 -1.23785e-05
				CHANNELS 6 Xposition Yposition Zposition Zrotation Xrotation Yrotation 
				JOINT Foot_L
				{
					OFFSET 40.9854 0.0 -1.26872e-05
					CHANNELS 6 Xposition Yposition Zposition Zrotation Xrotation Yrotation 
					JOINT Toes_L
					{
						OFFSET 11.7543 0.0 0.0
						CHANNELS 6 Xposition Yposition Zposition Zrotation Xrotation Yrotation 
						End Site
						{
							OFFSET 0.0 0.0 0.0
						}
					}
				}
			}
		}
		JOINT UpperLeg_R
		{
			OFFSET -2.19251 6.46944 0.0
			CHANNELS 6 Xposition Yposition Zposition Zrotation Xrotation Yrotation 
			JOINT LowerLeg_R
			{
				OFFSET -39.0811 -0.00228153 -0.0401928
				CHANNELS 6 Xposition Yposition Zposition Zrotation Xrotation Yrotation 
				JOINT Foot_R
				{
					OFFSET -40.9854 0.0 0.0
					CHANNELS 6 Xposition Yposition Zposition Zrotation Xrotation Yrotation 
					JOINT Toes_R
					{
						OFFSET -11.7543 0.0 0.0
						CHANNELS 6 Xposition Yposition Zposition Zrotation Xrotation Yrotation 
						End Site
						{
							OFFSET 0.0 0.0 0.0
						}
					}
				}
			}
		}
	}
}
MOTION
Frames:	9
Frame Time:	0.0333333
0.000000 0.000000 0.000000 0.000000 0.000000 -0.000000 -0.542903 92.949000 -0.616385 89.034200 -2.843680 1.637010 15.735700 0.000005 -0.000001 95.858500 86.717200 -96.000400 8.984550 -0.406207 -0.000000 -1.233930 0.681163 -0.276253 16.377300 -0.000001 -0.000001 2.426500 -2.057930 3.090930 6.456720 -0.000001 -0.000000 8.406630 -1.112970 -3.294220 12.994200 -0.242716 4.980390 -90.509700 1.612310 -72.454700 5.348090 -0.000007 -0.000001 -68.750400 35.590500 -12.657100 24.328600 0.000019 0.000005 5.195770 12.758400 -22.377700 22.291600 -0.000001 0.000005 2.263020 5.492920 -6.247870 12.994500 -0.242716 -4.980390 87.632900 8.081260 -73.613800 -5.348130 -0.000001 -0.000004 -64.168300 39.738100 -13.018200 -24.328900 0.000322 -0.000009 4.731550 12.904700 -20.339300 -22.291500 -0.000108 -0.000004 5.547020 5.350440 -1.388660 -2.192480 -6.469440 -0.000000 -176.703000 -8.514400 -2.370720 39.081100 -0.000007 -0.000012 -0.057206 0.186950 17.013800 40.985400 -0.000006 -0.000013 -0.291015 4.072080 -63.129200 11.754300 -0.000000 0.000003 -0.000001 -0.000022 -16.578300 -2.192510 6.469440 -0.000001 179.084000 11.065200 179.681000 -39.081100 -0.002282 -0.040193 -0.055055 0.230605 14.208100 -40.985400 0.000008 0.000006 0.927606 7.448660 -62.497000 -11.754300 -0.000006 -0.000006 -0.005700 -0.068085 -19.343800
0.000000 0.000000 0.000000 0.000000 0.000000 -0.000000 -0.559783 92.943700 -0.610110 89.025000 -2.732840 1.663180 15.735700 0.000005 -0.000001 95.958200 86.716600 -96.115800 8.984550 -0.406207 -0.000000 -1.233660 0.693896 -0.307518 16.377300 -0.000001 -0.000001 2.311800 -2.016870 3.063020 6.456720 -0.000001 -0.000000 8.403410 -1.059720 -3.167620 12.994200 -0.242716 4.980390 -90.520400 1.653780 -72.528900 5.348090 -0.000007 -0.000001 -68.132000 33.451900 -12.949600 24.328600 0.000019 0.000005 6.689550 14.376200 -25.282300 22.291600 -0.000001 0.000005 0.779397 5.492820 -6.246350 12.994500 -0.242716 -4.980390 87.685700 7.875300 -73.566500 -5.348130 -0.000001 -0.000004 -63.669700 38.257600 -13.411900 -24.328900 0.000322 -0.000009 5.813070 14.099500 -22.680600 -22.291500 -0.000108 -0.000004 2.358620 5.341110 -1.109870 -2.192480 -6.469440 -0.000000 -176.672000 -8.378610 -2.380340 39.081100 -0.000007 -0.000012 -0.059345 0.193280 17.068700 40.985400 -0.000006 -0.000013 -0.313901 4.061690 -63.151400 11.754300 -0.000000 0.000003 -0.000002 -0.000027 -16.578500 -2.192510 6.469440 -0.000001 179.103000 11.133000 179.703000 -39.081100 -0.002282 -0.040193 -0.055043 0.229971 14.242900 -40.985400 0.000008 0.000006 0.937096 7.394990 -62.527500 -11.754300 -0.000006 -0.000006 -0.005398 -0.065264 -19.228800
0.000000 0.000000 0.000000 0.000000 0.000000 -0.000000 -0.580698 92.945100 -0.635059 89.020200 -2.691940 1.703330 15.735700 0.000005 -0.000001 95.798100 86.718500 -95.975800 8.984550 -0.406207 -0.000000 -1.235580 0.676830 -0.348101 16.377300 -0.000001 -0.000001 2.378530 -1.954240 3.074320 6.456720 -0.000001 -0.000000 7.961470 -0.961903 -3.109320 12.994200 -0.242716 4.980390 -90.589400 1.830940 -72.153600 5.348090 -0.000007 -0.000001 -66.194500 30.146300 -14.172000 24.328600 0.000019 0.000005 7.876220 13.812800 -30.093100 22.291600 -0.000001 0.000005 0.588605 5.499000 -6.491130 12.994500 -0.242716 -4.980390 87.656700 7.795910 -73.212400 -5.348130 -0.000001 -0.000004 -62.111800 35.198200 -14.472500 -24.328900 0.000322 -0.000009 7.114470 13.969300 -27.348400 -22.291500 -0.000108 -0.000004 -0.609837 5.336480 -0.975710 -2.192480 -6.469440 -0.000000 -176.654000 -8.345400 -2.369540 39.081100 -0.000007 -0.000012 -0.058505 0.190412 17.079800 40.985400 -0.000006 -0.000013 -0.316687 4.093500 -63.134300 11.754300 -0.000000 0.000003 -0.000002 -0.000035 -16.578900 -2.192510 6.469440 -0.000001 179.119000 11.188400 179.729000 -39.081100 -0.002282 -0.040193 -0.055298 0.230828 14.251700 -40.985400 0.000008 0.000006 0.982476 7.382900 -62.526900 -11.754300 -0.000006 -0.000006 -0.005524 -0.066452 -19.277200
0.000000 0.000000 0.000000 0.000000 0.000000 -0.000000 -0.613842 92.957000 -0.742867 89.024400 -2.634690 1.656370 15.735700 0.000005 -0.000001 95.632900 86.744200 -95.825600 8.984550 -0.406207 -0.000000 -1.284800 0.654223 -0.378008 16.377300 -0.000001 -0.000001 2.652800 -1.903460 3.063700 6.456720 -0.000001 -0.000000 7.213800 -0.885762 -3.055240 12.994200 -0.242716 4.980390 -90.604800 1.846590 -71.860800 5.348090 -0.000007 -0.000001 -63.303800 25.942600 -16.493000 24.328600 0.000019 0.000005 7.886590 10.874200 -36.297000 22.291600 -0.000001 0.000005 2.335400 5.522310 -7.451910 12.994500 -0.242716 -4.980390 87.597600 7.748590 -72.715400 -5.348130 -0.000001 -0.000004 -58.959600 31.606500 -16.871900 -24.328900 0.000322 -0.000009 7.991850 12.004900 -34.027000 -22.291500 -0.000108 -0.000004 0.070687 5.341950 -1.134550 -2.192480 -6.469440 -0.000000 -176.630000 -8.428300 -2.477930 39.081100 -0.000007 -0.000012 -0.060181 0.196413 17.035000 40.985400 -0.000006 -0.000013 -0.336130 4.185780 -63.024100 11.754300 -0.000000 0.000003 -0.000004 -0.000053 -16.579600 -2.192510 6.469440 -0.000001 179.168000 11.153600 179.627000 -39.081100 -0.002282 -0.040193 -0.054549 0.228533 14.212400 -40.985400 0.000008 0.000006 0.971927 7.315000 -62.436800 -11.754300 -0.000006 -0.000006 -0.005627 -0.067407 -19.316200
0.000000 0.000000 0.000000 0.000000 0.000000 -0.000000 -0.628858 92.967800 -0.827033 89.024300 -2.659590 1.701020 15.735700 0.000005 -0.000001 95.569200 86.774700 -95.769900 8.984550 -0.406207 -0.000000 -1.344740 0.641835 -0.393745 16.377300 -0.000001 -0.000001 3.031990 -1.798450 3.000360 6.456720 -0.000001 -0.000000 6.633340 -0.721969 -2.876660 12.994200 -0.242716 4.980390 -90.588400 1.766560 -71.573900 5.348090 -0.000007 -0.000001 -59.504500 20.984300 -20.002900 24.328600 0.000019 0.000005 9.002570 9.325710 -44.347800 22.291600 -0.000001 0.000005 4.097740 5.538130 -8.150560 12.994500 -0.242716 -4.980390 87.574100 7.619270 -72.280200 -5.348130 -0.000001 -0.000004 -55.057700 26.859700 -20.368700 -24.328900 0.000322 -0.000009 9.568200 10.618100 -42.453500 -22.291500 -0.000108 -0.000004 2.079100 5.349630 -1.367500 -2.192480 -6.469440 -0.000000 -176.627000 -8.364300 -2.466350 39.081100 -0.000007 -0.000012 -0.059083 0.193429 16.985100 40.985400 -0.000006 -0.000013 -0.357764 4.113630 -62.940500 11.754300 -0.000000 0.000003 -0.000004 -0.000056 -16.579700 -2.192510 6.469440 -0.000001 179.187000 11.136300 179.630000 -39.081100 -0.002282 -0.040193 -0.053582 0.225355 14.173800 -40.985400 0.000008 0.000006 0.989959 7.324800 -62.360400 -11.754300 -0.000006 -0.000006 -0.005700 -0.068081 -19.343700
0.000000 0.000000 0.000000 0.000000 0.000000 -0.000000 -0.652561 92.986800 -0.945752 89.002900 -2.726730 1.658300 15.735700 0.000005 -0.000001 95.563000 86.857200 -95.757500 8.984550 -0.406207 -0.000000 -1.509030 0.624929 -0.380552 16.377300 -0.000001 -0.000001 3.541200 -1.638080 2.992560 6.456720 -0.000001 -0.000000 5.968820 -0.534309 -2.834920 12.994200 -0.242716 4.980390 -90.497200 1.468920 -71.297900 5.348090 -0.000007 -0.000001 -55.943300 14.730600 -24.239900 24.328600 0.000019 0.000005 11.089400 8.389370 -53.341400 22.291600 -0.000001 0.000005 6.341120 5.556020 -8.972840 12.994500 -0.242716 -4.980390 87.624800 7.239590 -71.781100 -5.348130 -0.000001 -0.000004 -51.286400 20.937400 -24.756500 -24.328900 0.000322 -0.000009 12.641200 10.001000 -52.240500 -22.291500 -0.000108 -0.000004 4.377470 5.356460 -1.564060 -2.192480 -6.469440 -0.000000 -176.605000 -8.397250 -2.543440 39.081100 -0.000007 -0.000012 -0.057773 0.190152 16.900100 40.985400 -0.000006 -0.000013 -0.377129 4.092760 -62.816400 11.754300 -0.000000 0.000003 -0.000002 -0.000037 -16.578900 -2.192510 6.469440 -0.000001 179.252000 11.102600 179.550000 -39.081100 -0.002282 -0.040193 -0.052635 0.223507 14.058000 -40.985400 0.000008 0.000006 1.009630 7.353500 -62.214200 -11.754300 -0.000006 -0.000006 -0.005680 -0.067896 -19.336100
0.000000 0.000000 0.000000 0.000000 0.000000 -0.000000 -0.651177 93.014100 -1.026880 88.982500 -2.833230 1.532520 15.735700 0.000005 -0.000001 95.742600 86.987800 -95.930800 8.984550 -0.406207 -0.000000 -1.770770 0.618317 -0.366787 16.377300 -0.000001 -0.000001 3.937310 -1.478200 2.952280 6.456720 -0.000001 -0.000000 5.527230 -0.328889 -2.741380 12.994200 -0.242716 4.980390 -90.287100 0.839700 -71.126000 5.348090 -0.000007 -0.000001 -53.591100 7.439970 -28.767600 24.328600 0.000019 0.000005 10.453000 5.602860 -62.129900 22.291600 -0.000001 0.000005 9.431420 5.570430 -9.697730 12.994500 -0.242716 -4.980390 87.738200 6.784090 -71.512600 -5.348130 -0.000001 -0.000004 -47.996000 14.025700 -29.486000 -24.328900 0.000322 -0.000009 14.258100 7.693960 -62.225500 -22.291500 -0.000108 -0.000004 8.240350 5.363140 -1.771700 -2.192480 -6.469440 -0.000000 -176.621000 -8.410680 -2.619500 39.081100 -0.000007 -0.000012 -0.055838 0.186005 16.709600 40.985400 -0.000006 -0.000013 -0.392214 3.993310 -62.672700 11.754300 -0.000000 0.000003 -0.000002 -0.000024 -16.578400 -2.192510 6.469440 -0.000001 179.326000 11.131300 179.444000 -39.081100 -0.002282 -0.040193 -0.048928 0.211657 13.869600 -40.985400 0.000008 0.000006 1.151900 7.436850 -62.069400 -11.754300 -0.000006 -0.000006 -0.005682 -0.067919 -19.337000
0.000000 0.000000 0.000000 0.000000 0.000000 -0.000000 -0.652722 93.039600 -1.066240 88.949600 -2.958490 1.377050 15.735700 0.000005 -0.000001 95.832700 87.137600 -96.001200 8.984550 -0.406207 -0.000000 -2.070050 0.596077 -0.326204 16.377300 -0.000001 -0.000001 4.117070 -1.373290 2.992630 6.456720 -0.000001 -0.000000 5.269490 -0.116710 -2.827870 12.994200 -0.242716 4.980390 -90.027600 0.081031 -71.204800 5.348090 -0.000007 -0.000001 -52.881300 -0.937227 -33.551400 24.328600 0.000019 0.000005 9.527510 3.386570 -70.611500 22.291600 -0.000001 0.000005 11.465600 5.578450 -10.128000 12.994500 -0.242716 -4.980390 87.923800 6.218280 -71.495700 -5.348130 -0.000001 -0.000004 -46.279000 5.719220 -34.680600 -24.328900 0.000322 -0.000009 14.320600 5.034350 -71.034500 -22.291500 -0.000108 -0.000004 10.942100 5.367350 -1.907500 -2.192480 -6.469440 -0.000000 -176.611000 -8.483200 -2.693540 39.081100 -0.000007 -0.000012 -0.055318 0.186547 16.516900 40.985400 -0.000006 -0.000013 -0.412362 3.923140 -62.554500 11.754300 -0.000000 0.000003 -0.000003 -0.000037 -16.579000 -2.192510 6.469440 -0.000001 179.427000 11.073200 179.337000 -39.081100 -0.002282 -0.040193 -0.044620 0.196896 13.687400 -40.985400 0.000008 0.000006 1.418920 7.491430 -61.981200 -11.754300 -0.000006 -0.000006 -0.005755 -0.068591 -19.364500
0.000000 0.000000 0.000000 0.000000 0.000000 -0.000000 -0.646244 93.054300 -1.046350 88.943000 -3.080610 1.232010 15.735700 0.000005 -0.000001 96.303500 87.289000 -96.461300 8.984550 -0.406207 -0.000000 -2.376020 0.609083 -0.302801 16.377300 -0.000001 -0.000001 4.139770 -1.342180 3.012090 6.456720 -0.000001 -0.000000 5.166850 -0.037421 -2.846570 12.994200 -0.242716 4.980390 -89.716400 -0.848229 -71.508400 5.348090 -0.000007 -0.000001 -53.737000 -9.332140 -39.034000 24.328600 0.000019 0.000005 9.196290 2.012930 -77.766100 22.291600 -0.000001 0.000005 13.662000 5.586630 -10.552700 12.994500 -0.242716 -4.980390 88.181500 5.536860 -71.786700 -5.348130 -0.000001 -0.000004 -46.095900 -3.148600 -40.456800 -24.328900 0.000322 -0.000009 15.568000 3.309470 -78.291400 -22.291500 -0.000108 -0.000004 13.177100 5.362990 -1.770170 -2.192480 -6.469440 -0.000000 -176.629000 -8.592730 -2.730540 39.081100 -0.000007 -0.000012 -0.054020 0.184033 16.358600 40.985400 -0.000006 -0.000013 -0.412184 3.915740 -62.499300 11.754300 -0.000000 0.000003 -0.000002 -0.000026 -16.578500 -2.192510 6.469440 -0.000001 179.482000 11.022000 179.249000 -39.081100 -0.002282 -0.040193 -0.041209 0.184466 13.574900 -40.985400 0.000008 0.000006 1.604320 7.503550 -61.957800 -11.754300 -0.000006 -0.000006 -0.005556 -0.066750 -19.289400
